<svg id="Layer_5" enable-background="new 0 0 64 64" height="512" viewBox="0 0 64 64" width="512" xmlns="http://www.w3.org/2000/svg"><path d="m54 42h-15.07c-1.38-2.39-3.97-4-6.93-4h16 2c2.21 0 4 1.79 4 4z" fill="#969faa"/><path d="m45 32 3 6h-16l3-6z" fill="#aab2bd"/><path d="m62 6v22c0 2.21-1.79 4-4 4h-13-10-13c-2.21 0-4-1.79-4-4v-5-17c0-2.21 1.79-4 4-4h36c2.21 0 4 1.79 4 4zm-4 21v-20c0-.55-.45-1-1-1h-34c-.55 0-1 .45-1 1v20c0 .55.45 1 1 1h34c.55 0 1-.45 1-1z" fill="#ccd1d9"/><path d="m58 7v20c0 .55-.45 1-1 1h-34c-.55 0-1-.45-1-1v-20c0-.55.45-1 1-1h34c.55 0 1 .45 1 1z" fill="#69d6f4"/><path d="m43 20 4 1v3h-4v-2.39c0-.54-.06-1.06-.18-1.57z" fill="#ff826e"/><path d="m37 20 .18.04c-.12.51-.18 1.03-.18 1.57v2.39h-4v-3z" fill="#ff826e"/><path d="m43 21.61v2.39h-6v-2.39c0-.54.06-1.06.18-1.57.4-1.64 1.39-3.09 2.82-4.04 1.43.95 2.42 2.4 2.82 4.04.12.51.18 1.03.18 1.57z" fill="#ffeaa7"/><path d="m16 54-3.04 6.07c-.59 1.18-1.79 1.93-3.12 1.93-1.65 0-3.08-1.16-3.41-2.79l-1.43-6.97c1.37 1.1 3.11 1.76 5 1.76z" fill="#fcd770"/><path d="m37 52.24-1.43 6.97c-.33 1.63-1.76 2.79-3.41 2.79-1.33 0-2.53-.75-3.12-1.93l-3.04-6.07h6c1.89 0 3.63-.66 5-1.76z" fill="#fcd770"/><path d="m32 54h-6-10-6c-1.89 0-3.63-.66-5-1.76-1.83-1.46-3-3.71-3-6.24 0-4.42 3.58-8 8-8 2.96 0 5.54 1.61 6.92 4h4.08 4.08c1.38-2.39 3.96-4 6.92-4s5.55 1.61 6.93 4c.68 1.17 1.07 2.54 1.07 4 0 2.53-1.17 4.78-3 6.24-1.37 1.1-3.11 1.76-5 1.76z" fill="#ffeaa7"/><path d="m24 47v2c0 .55-.45 1-1 1h-4c-.55 0-1-.45-1-1v-2c0-.55.45-1 1-1h4c.55 0 1 .45 1 1z" fill="#69d6f4"/><path d="m57 5h-34c-1.103 0-2 .897-2 2v20c0 1.103.897 2 2 2h34c1.103 0 2-.897 2-2v-20c0-1.103-.897-2-2-2zm0 22h-34v-20l34-.001z"/><path d="m58 1h-36c-2.757 0-5 2.243-5 5v16h-10c-1.654 0-3 1.346-3 3s1.346 3 3 3h5c.552 0 1 .449 1 1s-.448 1-1 1h-8c-1.654 0-3 1.346-3 3s1.346 3 3 3h15c.552 0 1 .449 1 1v4h-2.525c-1.663-2.481-4.476-4-7.475-4-4.963 0-9 4.038-9 9 0 2.699 1.2 5.118 3.088 6.769l1.361 6.645c.427 2.078 2.276 3.586 4.396 3.586 1.711 0 3.249-.951 4.014-2.48l2.76-5.52h8.764l2.76 5.52c.765 1.53 2.303 2.48 4.014 2.48 2.12 0 3.969-1.508 4.396-3.586l1.361-6.645c1.886-1.651 3.086-4.07 3.086-6.769 0-1.053-.191-2.06-.525-3h14.525v-1c0-2.757-2.243-5-5-5h-1.382l-2-4h11.382c2.757 0 5-2.243 5-5v-22c0-2.757-2.243-5-5-5zm-39 33h-15c-.552 0-1-.449-1-1s.448-1 1-1h8c1.654 0 3-1.346 3-3s-1.346-3-3-3h-5c-.552 0-1-.449-1-1s.448-1 1-1h10v4c0 2.757 2.243 5 5 5h11.382l-2.02 4.04c-2.755.199-5.292 1.656-6.836 3.96h-2.526v-4c0-1.654-1.346-3-3-3zm-6.931 25.625c-.423.848-1.276 1.375-2.224 1.375-1.176 0-2.2-.836-2.437-1.988l-.973-4.752c1.094.474 2.298.74 3.565.74h4.382zm22.523-.613c-.237 1.152-1.261 1.988-2.437 1.988-.948 0-1.801-.527-2.225-1.375l-2.312-4.625h4.382c1.267 0 2.471-.266 3.565-.74zm-2.592-6.012h-22c-3.859 0-7-3.14-7-7s3.141-7 7-7c2.484 0 4.805 1.342 6.056 3.501l.289.499h9.311l.289-.499c1.25-2.159 3.571-3.501 6.055-3.501 3.859 0 7 3.14 7 7s-3.141 7-7 7zm20.829-12h-13.351c-.507-.756-1.127-1.429-1.834-2h12.356c1.304 0 2.416.836 2.829 2zm-6.447-4h-12.764l2-4h8.764zm14.618-9c0 1.654-1.346 3-3 3h-36c-1.654 0-3-1.346-3-3v-22c0-1.654 1.346-3 3-3h36c1.654 0 3 1.346 3 3z"/><path d="m11 41h-2v4h-4v2h4v4h2v-4h4v-2h-4z"/><circle cx="32" cy="42" r="1"/><circle cx="28" cy="46" r="1"/><circle cx="32" cy="50" r="1"/><circle cx="36" cy="46" r="1"/><path d="m23 45h-4c-1.103 0-2 .897-2 2v2c0 1.103.897 2 2 2h4c1.103 0 2-.897 2-2v-2c0-1.103-.897-2-2-2zm-4 4v-2h4l.001 2z"/><path d="m37 25h6 1 4v-7h-2v1.719l-2.424-.606c-.541-1.59-1.581-2.985-3.021-3.945l-.555-.37-.555.37c-1.44.96-2.48 2.355-3.021 3.945l-2.424.606v-1.719h-2v7h4zm9-3.219v1.219h-2v-1.395c0-.111-.016-.219-.02-.33zm-8-.176c0-1.688.737-3.271 2-4.353 1.263 1.083 2 2.665 2 4.353v1.395h-4zm-4 1.395v-1.219l2.02-.505c-.005.11-.02.219-.02.33v1.394z"/><path d="m46 14h2v2h-2z"/><path d="m46 10h2v2h-2z"/><path d="m32 14h2v2h-2z"/><path d="m32 10h2v2h-2z"/></svg>