<?xml version="1.0" encoding="utf-8"?>
<!-- Generator: Adobe Illustrator 22.0.0, SVG Export Plug-In . SVG Version: 6.00 Build 0)  -->
<svg version="1.1" id="Layer_1" xmlns="http://www.w3.org/2000/svg" xmlns:xlink="http://www.w3.org/1999/xlink" x="0px" y="0px"
	 viewBox="0 0 496 496" style="enable-background:new 0 0 496 496;" xml:space="preserve">
<style type="text/css">
	.st0{fill:#FFFFFF;}
</style>
<path class="st0" d="M176,248c17.6,0,32-14.4,32-32h-16c0,8.8-7.2,16-16,16s-16-7.2-16-16h-16C144,233.6,158.4,248,176,248z"/>
<path class="st0" d="M144,168c0,4.4-3.6,8-8,8s-8-3.6-8-8s3.6-8,8-8S144,163.6,144,168z"/>
<path class="st0" d="M224,168c0,4.4-3.6,8-8,8s-8-3.6-8-8s3.6-8,8-8S224,163.6,224,168z"/>
<path class="st0" d="M272,240v63.6l-40-13.3v-22.4c13.7-11.3,23.8-26.7,28.7-44.3c19.8-2.4,35.3-19.1,35.3-39.5v-64
	C296,53.8,242.2,0,176,0S56,53.8,56,120v64c0,20.4,15.5,37.2,35.3,39.5c4.9,17.6,15,33,28.7,44.3v22.4l-81.7,27.3
	C15.4,325.1,0,346.5,0,370.6V448h272v48h224V292.7L443.3,240H272z M448,267.3l20.7,20.7H448V267.3z M238.8,309.4l-12.2,60.9
	L188.3,343l37.8-37.8L238.8,309.4z M263.7,206.6c0.2-2.2,0.3-4.4,0.3-6.6v-38.5c9.3,3.3,16,12.1,16,22.5
	C280,194.5,273.1,203.4,263.7,206.6z M72,184c0-10.4,6.7-19.2,16-22.5V200c0,2.2,0.2,4.4,0.3,6.6C78.9,203.4,72,194.5,72,184z
	 M89.5,144.7c-6.5,1.1-12.5,3.7-17.5,7.6V120c0-57.3,46.7-104,104-104s104,46.7,104,104v32.2c-5.1-3.8-11-6.5-17.5-7.6
	c-5-18.8-22.1-32.7-42.5-32.7c-9.5,0-18.8,3.1-26.4,8.8L176,134l-17.6-13.2c-7.6-5.7-16.9-8.8-26.4-8.8
	C111.7,112,94.6,125.9,89.5,144.7z M104,200v-44c0-15.4,12.6-28,28-28c6,0,12,2,16.8,5.6L176,154l27.2-20.4C208,130,214,128,220,128
	c15.4,0,28,12.6,28,28v44c0,39.7-32.3,72-72,72S104,239.7,104,200z M176,288c14.4,0,28-3.6,40-9.7v14.4l-40,40l-40-40v-14.4
	C148,284.4,161.6,288,176,288z M125.8,305.2l37.8,37.8l-38.2,27.3l-12.2-60.9L125.8,305.2z M80,432v-48H64v48H16v-61.4
	c0-17.2,11-32.5,27.4-37.9l54.6-18.2l16.6,83.2l61.4-43.9l61.4,43.9l16.6-83.2l17.9,6V432H80z M288,480V256h144v48h48v176H288z"/>
<path class="st0" d="M384,464h80v-80h-80V464z M400,400h48v48h-48V400z"/>
<path class="st0" d="M304,448h64v16h-64V448z"/>
<path class="st0" d="M304,416h64v16h-64V416z"/>
<path class="st0" d="M304,384h64v16h-64V384z"/>
<path class="st0" d="M304,272h16v16h-16V272z"/>
<path class="st0" d="M336,272h80v16h-80V272z"/>
<path class="st0" d="M304,304h112v16H304V304z"/>
<path class="st0" d="M448,336h16v16h-16V336z"/>
<path class="st0" d="M304,336h128v16H304V336z"/>
<path class="st0" d="M408,224c48.5,0,88-39.5,88-88c0-19-6.1-36.6-16.4-51l14.3-15.6l-11.8-10.8l-13,14.2
	C453.2,57.5,431.7,48,408,48c-48.5,0-88,39.5-88,88S359.5,224,408,224z M408,64c19.6,0,37.3,7.9,50.3,20.6l-59.1,64.5L365,121.8
	l-10,12.5l45.8,36.7l67.7-73.8c7.3,11.2,11.5,24.6,11.5,38.9c0,39.7-32.3,72-72,72s-72-32.3-72-72S368.3,64,408,64z"/>
</svg>
