<svg height="496pt" viewBox="0 0 496 496" width="496pt" xmlns="http://www.w3.org/2000/svg"><path d="m48 8h424c8.800781 0 16 7.199219 16 16v48h-456v-48c0-8.800781 7.199219-16 16-16zm0 0" fill="#ccd1d9"/><path d="m399.519531 264.320312c-10.238281-10.160156-24.160156-16.320312-39.519531-16.320312h8c4.398438 0 8.398438-1.761719 11.28125-4.71875 2.957031-2.882812 4.71875-6.882812 4.71875-11.28125 0-8.800781-7.199219-16-16-16h-16c-4.398438 0-8.398438 1.761719-11.28125 4.71875-2.957031 2.882812-4.71875 6.882812-4.71875 11.28125 0 8.800781 7.199219 16 16 16h8c-15.441406 0-29.441406 6.238281-39.519531 16.320312-10.160157 10.160157-16.480469 24.160157-16.480469 39.679688v24h-184l-.558594 2.160156-15.441406-2.160156h8c4.398438 0 8.398438-1.761719 11.28125-4.71875 2.957031-2.882812 4.71875-6.882812 4.71875-11.28125 0-8.800781-7.199219-16-16-16h-16c-4.398438 0-8.398438 1.761719-11.28125 4.71875-2.957031 2.882812-4.71875 6.882812-4.71875 11.28125 0 6.078125 3.441406 11.359375 8.398438 14.078125l-.398438 1.921875h-56v-256h456v256h-72v-24c0-15.519531-6.238281-29.441406-16.398438-39.601562zm0 0" fill="#e6e9ed"/><path d="m399.519531 264.320312-39.519531 31.679688-39.519531-31.679688c10.078125-10.082031 24.078125-16.320312 39.519531-16.320312 15.359375 0 29.28125 6.160156 39.519531 16.320312zm0 0" fill="#fcd770"/><path d="m399.601562 264.398438-.082031-.078126-39.519531 31.679688-39.519531-31.679688c-10.160157 10.160157-16.480469 24.160157-16.480469 39.679688v48c0 30.960938 25.039062 56 56 56s56-25.039062 56-56v-48c0-15.519531-6.238281-29.441406-16.398438-39.601562zm0 0" fill="#ff826e"/><path d="m143.519531 344.320312-39.519531 31.679688-39.519531-31.679688c-10.160157 10.160157-16.480469 24.160157-16.480469 39.679688v48c0 30.960938 25.039062 56 56 56s56-25.039062 56-56v-48c0-15.519531-6.238281-29.441406-16.398438-39.601562zm0 0" fill="#ff826e"/><g fill="#fcd770"><path d="m104 328 15.441406 2.160156c9.199219 2.640625 17.4375 7.519532 24.078125 14.160156l-39.519531 31.679688-39.519531-31.679688c10.078125-10.082031 24.078125-16.320312 39.519531-16.320312zm0 0"/><path d="m352 216h16c8.800781 0 16 7.199219 16 16 0 4.398438-1.761719 8.398438-4.71875 11.28125-2.882812 2.957031-6.882812 4.71875-11.28125 4.71875h-16c-8.800781 0-16-7.199219-16-16 0-4.398438 1.761719-8.398438 4.71875-11.28125 2.882812-2.957031 6.882812-4.71875 11.28125-4.71875zm0 0"/><path d="m112 296c8.800781 0 16 7.199219 16 16 0 4.398438-1.761719 8.398438-4.71875 11.28125-2.882812 2.957031-6.882812 4.71875-11.28125 4.71875h-16c-2.71875 0-5.359375-.71875-7.601562-1.921875-4.957032-2.71875-8.398438-8-8.398438-14.078125 0-4.398438 1.761719-8.398438 4.71875-11.28125 2.882812-2.957031 6.882812-4.71875 11.28125-4.71875zm0 0"/></g><path d="m224 136v96h-160v-96zm0 0" fill="#ffeaa7"/><path d="m128 104 16 32h-80v-32zm0 0" fill="#fcd770"/><path d="m448 288h-26.105469c-4.789062-18.519531-17.65625-33.777344-34.628906-41.816406 2.933594-3.984375 4.734375-8.863282 4.734375-14.183594 0-9.183594-5.238281-17.078125-12.832031-21.113281 5.136719-8.519531 13.390625-14.773438 23.3125-17.261719l7.457031-1.863281-3.882812-15.515625-7.453126 1.867187c-16.105468 4.023438-29.167968 15.03125-35.976562 29.886719h-5.25c-6.808594-14.863281-19.871094-25.863281-35.976562-29.886719l-7.453126-1.867187-3.882812 15.515625 7.457031 1.863281c9.921875 2.480469 18.183594 8.734375 23.3125 17.261719-7.59375 4.035156-12.832031 11.929687-12.832031 21.113281 0 5.320312 1.800781 10.199219 4.742188 14.183594-16.972657 8.039062-29.839844 23.296875-34.628907 41.816406h-26.113281v-24h-16v40h40v16h-40v16h40v16h-40v40h16v-24h26.105469c7.132812 27.558594 32.132812 48 61.894531 48s54.761719-20.441406 61.894531-48h26.105469v24h16v-40h-40v-16h40v-16h-40v-16h40v-40h-16zm-88-2.238281-26.878906-21.503907c7.679687-5.210937 16.925781-8.257812 26.878906-8.257812s19.199219 3.046875 26.878906 8.246094zm-8-45.761719c-4.40625 0-8-3.585938-8-8s3.59375-8 8-8h16c4.40625 0 8 3.585938 8 8s-3.59375 8-8 8zm56 112c0 23.734375-17.335938 43.449219-40 47.28125v-31.28125h-16v31.28125c-22.664062-3.824219-40-23.539062-40-47.28125v-48c0-10.703125 3.558594-20.558594 9.503906-28.550781l30.496094 24.390625v52.160156h16v-52.160156l30.496094-24.390625c5.945312 7.992187 9.503906 17.847656 9.503906 28.550781zm0 0"/><path d="m472 0h-424c-13.230469 0-24 10.769531-24 24v312h37.808594c-9.480469 8.34375-16.449219 19.414062-19.703125 32h-26.105469v-24h-16v40h40v16h-40v16h40v16h-40v40h16v-24h26.105469c7.132812 27.558594 32.132812 48 61.894531 48s54.761719-20.441406 61.894531-48h26.105469v24h16v-40h-40v-16h40v-16h-40v-16h40v-40h-16v24h-26.105469c-3.253906-12.585938-10.222656-23.65625-19.703125-32h85.808594v-16h-97.472656c.898437-2.511719 1.472656-5.183594 1.472656-8 0-9.183594-5.238281-17.078125-12.832031-21.113281 5.136719-8.519531 13.390625-14.773438 23.3125-17.261719l7.457031-1.863281-3.882812-15.515625-7.453126 1.867187c-16.105468 4.023438-29.167968 15.03125-35.976562 29.886719h-5.25c-6.808594-14.863281-19.871094-25.863281-35.976562-29.886719l-7.453126-1.875-3.890624 15.523438 7.457031 1.863281c9.921875 2.480469 18.183593 8.734375 23.3125 17.261719-7.585938 4.035156-12.824219 11.929687-12.824219 21.113281 0 2.816406.574219 5.488281 1.472656 8h-33.472656v-240h440v248h16v-304c0-13.230469-10.769531-24-24-24zm-376 320c-4.40625 0-8-3.585938-8-8s3.59375-8 8-8h16c4.40625 0 8 3.585938 8 8s-3.59375 8-8 8zm8 45.761719-26.878906-21.503907c7.679687-5.210937 16.925781-8.257812 26.878906-8.257812s19.199219 3.046875 26.878906 8.246094zm48 18.238281v48c0 23.734375-17.335938 43.449219-40 47.28125v-31.28125h-16v31.28125c-22.664062-3.824219-40-23.539062-40-47.28125v-48c0-10.703125 3.558594-20.558594 9.503906-28.550781l30.496094 24.390625v52.160156h16v-52.160156l30.496094-24.390625c5.945312 7.992187 9.503906 17.847656 9.503906 28.550781zm-112-320v-40c0-4.414062 3.59375-8 8-8h424c4.40625 0 8 3.585938 8 8v40zm0 0"/><path d="m56 32h16v16h-16zm0 0"/><path d="m88 32h16v16h-16zm0 0"/><path d="m120 32h16v16h-16zm0 0"/><path d="m448 96h16v16h-16zm0 0"/><path d="m416 96h16v16h-16zm0 0"/><path d="m448 128h16v16h-16zm0 0"/><path d="m448 160h16v16h-16zm0 0"/><path d="m416 128h16v16h-16zm0 0"/><path d="m384 96h16v16h-16zm0 0"/><path d="m132.945312 96h-76.945312v144h176v-112h-83.054688zm-60.945312 16h51.054688l8 16h-59.054688zm144 112h-144v-80h144zm0 0"/><path d="m88 160h16v16h-16zm0 0"/><path d="m120 160h80v16h-80zm0 0"/><path d="m88 192h112v16h-112zm0 0"/></svg>