<svg id="Layer_5" enable-background="new 0 0 64 64" height="512" viewBox="0 0 64 64" width="512" xmlns="http://www.w3.org/2000/svg"><path d="m2 10h46v28h-46z" fill="#e6e9ed"/><path d="m6 14h10v10h-10z" fill="#fcd770"/><path d="m20 14h10v10h-10z" fill="#ff826e"/><path d="m34 14h10v10h-10z" fill="#fcd770"/><path d="m2 2h46v8h-46z" fill="#b4dd7f"/><path d="m35.67 49.02 1.27 4.74c.04.16.06.32.06.49 0 .99-.76 1.82-1.74 1.9l-4.44.4 2.71-8.13z" fill="#e6e9ed"/><path d="m32 48 1.53.42-2.71 8.13-1.27 3.79c-.33.99-1.25 1.66-2.3 1.66h-2.82c-.67 0-1.28-.27-1.72-.71s-.71-1.05-.71-1.72c0-.37.09-.75.26-1.08l3.48-6.98c.17-.33.26-.71.26-1.08v-2.43z" fill="#ccd1d9"/><path d="m24 44v4h-2c-2.21 0-4-1.79-4-4v-6-2c0-2.21 1.79-4 4-4h2v4z" fill="#aab2bd"/><path d="m48 27.56 2-.56v26l-14.33-3.98-2.14-.6-1.53-.42v-16z" fill="#aab2bd"/><path d="m40 35v10c0 .55-.45 1-1 1h-2c-.55 0-1-.45-1-1v-10c0-.55.45-1 1-1h2c.55 0 1 .45 1 1z" fill="#b4dd7f"/><path d="m24 44v-8-4h8v16h-6-2z" fill="#fcd770"/><path d="m56 46v7c0 1.66-1.34 3-3 3s-3-1.34-3-3v-26c0-1.66 1.34-3 3-3 .83 0 1.58.34 2.12.88s.88 1.29.88 2.12v7z" fill="#fcd770"/><path d="m56 34c3.31 0 6 2.69 6 6s-2.69 6-6 6z" fill="#fc6e51"/><path d="m63 40c0-3.519-2.613-6.432-6-6.92v-6.08c0-2.206-1.794-4-4-4-1.938 0-3.556 1.386-3.921 3.218l-.079.022v-25.24h-48v38h16v5c0 2.757 2.243 5 5 5h3v1.427c0 .22-.052.441-.151.638l-3.487 6.975c-.237.475-.362 1.004-.362 1.533 0 1.889 1.538 3.427 3.427 3.427h2.823c1.478 0 2.784-.942 3.251-2.343l1.058-3.173 3.786-.334c1.513-.133 2.655-1.38 2.655-2.9 0-.254-.033-.507-.098-.75l-.814-3.049 11.991 3.331c.365 1.832 1.983 3.218 3.921 3.218 2.206 0 4-1.794 4-4v-6.08c3.387-.488 6-3.401 6-6.92zm-38 5h4v-2h-4v-6h4v-2h-4v-2h6v14.032l-6-.021zm8 2.24v-14.516l16-4.411v23.372zm14-44.24v6h-44v-6zm-30 33v1h-14v-26h44v15.796l-15.136 4.204h-9.864c-2.757 0-5 2.243-5 5zm2 8v-8c0-1.654 1.346-3 3-3h1v14.004l-1-.004c-1.654 0-3-1.346-3-3zm9.604 16.024c-.194.584-.738.976-1.354.976h-2.823c-.787 0-1.427-.64-1.427-1.427 0-.22.052-.441.151-.638l3.487-6.975c.237-.475.362-1.004.362-1.533v-1.427h4.864l.38.106zm7.366-6.008c.02.076.03.155.03.234 0 .476-.357.865-.831.907l-2.92.258 1.925-5.774.679.188zm19.03-1.016c0 1.103-.897 2-2 2s-2-.897-2-2v-26c0-1.103.897-2 2-2s2 .897 2 2zm2-8.101v-9.798c2.279.465 4 2.484 4 4.899s-1.721 4.434-4 4.899z"/><path d="m39 33h-2c-1.103 0-2 .897-2 2v10c0 1.103.897 2 2 2h2c1.103 0 2-.897 2-2v-10c0-1.103-.897-2-2-2zm-2 12v-10h2l.001 10z"/><path d="m5 5h2v2h-2z"/><path d="m9 5h2v2h-2z"/><path d="m13 5h2v2h-2z"/><path d="m5 25h12v-12h-12zm2-10h8v8h-8z"/><path d="m31 13h-12v12h12zm-2 10h-8v-8h8z"/><path d="m45 13h-12v12h12zm-2 10h-8v-8h8z"/><path d="m5 27h12v2h-12z"/><path d="m15 31h2v2h-2z"/><path d="m5 31h8v2h-8z"/></svg>