<?xml version="1.0" encoding="utf-8"?>
<!-- Generator: Adobe Illustrator 22.0.0, SVG Export Plug-In . SVG Version: 6.00 Build 0)  -->
<svg version="1.1" id="Layer_1" xmlns="http://www.w3.org/2000/svg" xmlns:xlink="http://www.w3.org/1999/xlink" x="0px" y="0px"
	 viewBox="0 0 512 512" style="enable-background:new 0 0 512 512;" xml:space="preserve">
<style type="text/css">
	.st0{fill:#FFFFFF;}
</style>
<g>
	<path class="st0" d="M429.2,82.8C383,36.5,321.4,11,256,11S129,36.5,82.8,82.8S11,190.6,11,256s25.5,127,71.8,173.2
		S190.6,501,256,501s127-25.5,173.2-71.8S501,321.4,501,256S475.5,129,429.2,82.8z M478.8,245h-95c-0.9-37.8-6.2-74.2-15.5-106.5
		c18.1-9.3,35-21,50.5-34.8C453.8,141.1,476.1,190.5,478.8,245z M267,267h94.9c-0.8,34.8-5.6,68.1-13.9,97.9
		c-25.6-10.3-52.9-16.3-81-17.6V267z M403,88.4c-12.8,11.3-26.8,20.9-41.6,28.9c-3.8-10.6-8.1-20.6-12.9-30
		c-9.5-18.8-20.3-34.2-32.2-46C348.8,50.4,378.3,66.7,403,88.4z M267,36.4c22.9,5.1,44.5,26.2,61.9,60.6c4.7,9.3,8.9,19.2,12.6,29.7
		c-23.5,9.7-48.6,15.4-74.5,16.7V36.4z M348.1,147.8c8.2,29.6,12.9,62.7,13.7,97.3H267v-79.6C295.2,164.2,322.5,158.1,348.1,147.8
		L348.1,147.8z M245,245h-94.9c0.8-34.6,5.5-67.7,13.7-97.3c25.6,10.4,53,16.4,81.1,17.6V245H245z M245.1,36.4v107
		c-25.9-1.3-51.1-7-74.5-16.7c3.7-10.5,7.9-20.4,12.6-29.7C200.6,62.6,222.2,41.5,245.1,36.4z M195.8,41.3
		c-11.9,11.8-22.7,27.3-32.2,46c-4.7,9.4-9,19.4-12.9,30c-14.8-8-28.7-17.6-41.6-28.9C133.8,66.7,163.3,50.4,195.8,41.3L195.8,41.3z
		 M93.3,103.7c15.5,13.8,32.4,25.4,50.5,34.8c-9.3,32.4-14.7,68.7-15.5,106.5h-95C36,190.5,58.3,141.1,93.3,103.7z M33.3,267h95
		c0.9,38.1,6.3,74.6,15.7,107.1c-18,9.3-34.9,20.8-50.3,34.6C58.4,371.2,36,321.7,33.3,267z M109.5,424
		c12.8-11.2,26.7-20.8,41.4-28.7c3.8,10.3,8,20.2,12.7,29.4c9.5,18.8,20.3,34.2,32.2,46.1C163.5,461.7,134.1,445.5,109.5,424
		L109.5,424z M245.1,475.6c-22.9-5.1-44.5-26.2-61.9-60.6c-4.6-9.1-8.7-18.8-12.4-29.1c23.4-9.7,48.5-15.4,74.3-16.6L245.1,475.6
		L245.1,475.6z M164.1,364.9c-8.3-29.8-13.1-63.1-13.9-97.9h94.9v80.3C217,348.5,189.7,354.5,164.1,364.9L164.1,364.9z M267.1,475.6
		V369.3c25.8,1.3,50.9,6.9,74.3,16.6c-3.7,10.3-7.8,20-12.4,29.1C311.6,449.4,290,470.5,267.1,475.6L267.1,475.6z M316.4,470.7
		c11.9-11.8,22.7-27.3,32.2-46.1c4.7-9.2,8.9-19.1,12.7-29.4c14.7,7.9,28.6,17.5,41.4,28.7C378.1,445.5,348.7,461.7,316.4,470.7
		L316.4,470.7z M418.6,408.7c-15.4-13.7-32.3-25.3-50.3-34.6c9.4-32.5,14.8-69.1,15.7-107.1h95C476.2,321.7,453.8,371.2,418.6,408.7
		L418.6,408.7z"/>
</g>
</svg>
